<svg width="482" height="97" viewBox="0 0 482 97" fill="none" xmlns="http://www.w3.org/2000/svg">
<path fill-rule="evenodd" clip-rule="evenodd" d="M94.8223 0.255859H0V13.8019V95.0782H94.8223V13.8019V0.255859ZM13.546 81.5321V13.8019H81.2763V81.5321H13.546ZM54.1842 20.5749L27.0921 47.667L54.1842 74.7591V55.5914L46.2597 47.667L54.1842 39.7426V20.5749Z" fill="#F5037C"/>
<path fill-rule="evenodd" clip-rule="evenodd" d="M251.67 33.3566V2.7214H264.344V59.8708L226.711 26.5142V57.1494H214.114V0L251.67 33.3566ZM120.175 38.0218L111 44.631C112.244 47.2228 113.981 49.6072 116.21 51.7844C118.438 53.9615 121.056 55.698 124.063 56.9939C127.121 58.238 130.413 58.86 133.938 58.86C136.477 58.86 138.94 58.4712 141.324 57.6937C143.76 56.968 145.912 55.8794 147.778 54.428C149.696 52.9766 151.199 51.1882 152.288 49.063C153.428 46.8858 153.998 44.4236 153.998 41.6763C153.998 39.3955 153.635 37.3739 152.91 35.6115C152.184 33.849 151.173 32.2939 149.877 30.9462C148.633 29.5985 147.182 28.4581 145.523 27.525C143.864 26.5401 142.076 25.6848 140.158 24.9591C137.618 24.0779 135.441 23.2485 133.626 22.471C131.864 21.6934 130.49 20.8381 129.506 19.9051C128.572 18.972 128.106 17.8835 128.106 16.6394C128.106 15.4472 128.598 14.4623 129.583 13.6848C130.568 12.8554 131.994 12.4407 133.86 12.4407C135.259 12.4407 136.555 12.7258 137.747 13.296C138.992 13.8143 140.106 14.566 141.091 15.5509C142.128 16.4839 143.035 17.5984 143.812 18.8943L153.843 13.296C152.91 11.4299 151.562 9.58969 149.799 7.77543C148.037 5.96116 145.808 4.45791 143.113 3.26568C140.469 2.07345 137.333 1.47733 133.704 1.47733C130.179 1.47733 126.966 2.09936 124.063 3.34343C121.212 4.53567 118.931 6.2981 117.22 8.63073C115.562 10.9634 114.732 13.7366 114.732 16.9504C114.732 19.6459 115.225 21.9526 116.21 23.8706C117.194 25.7367 118.438 27.3436 119.942 28.6913C121.445 29.9872 123.026 31.0499 124.685 31.8793C126.395 32.7086 127.899 33.3566 129.195 33.8231C131.838 34.808 133.963 35.6892 135.57 36.4668C137.177 37.2443 138.344 38.0737 139.069 38.9549C139.795 39.7843 140.158 40.8988 140.158 42.2983C140.158 43.9571 139.536 45.2789 138.292 46.2638C137.048 47.1969 135.467 47.6634 133.549 47.6634C131.734 47.6634 129.998 47.2746 128.339 46.4971C126.732 45.7195 125.229 44.605 123.829 43.1536C122.482 41.7022 121.264 39.9916 120.175 38.0218ZM193.342 2.7214L182.689 23.1708L172.037 2.7214H156.953L176.003 35.0672V57.1494H189.376V34.9894L208.426 2.7214H193.342ZM288.443 57.1494H312.003V46.3416H288.443V33.8231H310.448V23.2485H288.443V13.5292H312.003V2.7214H288.443H284.555H275.847V57.1494H284.555H288.443ZM339.802 38.2551L351.544 57.1494H366.939L352.755 36.6184C353.25 36.4288 353.727 36.2227 354.187 36.0002C357.298 34.497 359.656 32.4235 361.263 29.7799C362.87 27.0844 363.673 24.0002 363.673 20.5271C363.673 17.0023 362.87 13.918 361.263 11.2744C359.656 8.57889 357.298 6.47952 354.187 4.97627C351.077 3.47302 347.19 2.7214 342.524 2.7214H335.837H330.939H322.697V57.1494H335.837V38.2551H339.802ZM335.837 13.8403V28.0693H341.591C343.354 28.0693 344.857 27.8101 346.101 27.2918C347.397 26.7216 348.382 25.9181 349.056 24.8814C349.73 23.7928 350.066 22.4969 350.066 20.9937C350.066 19.4904 349.73 18.2204 349.056 17.1837C348.382 16.0951 347.397 15.2658 346.101 14.6956C344.857 14.1254 343.354 13.8403 341.591 13.8403H335.837ZM400.021 37.4776H414.483C414.016 38.8771 413.368 40.199 412.539 41.443C411.762 42.6353 410.777 43.6979 409.584 44.631C408.444 45.5122 407.07 46.212 405.463 46.7303C403.908 47.1968 402.146 47.4301 400.176 47.4301C396.962 47.4301 394.111 46.7303 391.623 45.3307C389.187 43.8793 387.243 41.8577 385.792 39.2659C384.392 36.6223 383.692 33.5121 383.692 29.9354C383.692 26.3069 384.418 23.2485 385.869 20.7604C387.373 18.2204 389.368 16.2766 391.856 14.9288C394.345 13.5811 397.118 12.9072 400.176 12.9072C403.338 12.9072 405.956 13.6329 408.029 15.0843C410.155 16.4839 411.839 18.2723 413.083 20.4494L424.746 14.3845C423.036 11.8446 420.988 9.61561 418.604 7.69767C416.271 5.7279 413.576 4.19873 410.517 3.11017C407.459 2.02161 404.012 1.47733 400.176 1.47733C395.874 1.47733 391.882 2.1512 388.202 3.49894C384.522 4.84668 381.308 6.76462 378.56 9.25276C375.813 11.7409 373.688 14.7474 372.185 18.2723C370.681 21.7453 369.93 25.633 369.93 29.9354C369.93 34.2378 370.655 38.1774 372.107 41.7541C373.61 45.2789 375.683 48.3372 378.327 50.9291C380.971 53.469 384.107 55.4388 387.735 56.8384C391.364 58.1861 395.355 58.86 399.71 58.86C404.323 58.86 408.418 58.0565 411.995 56.4496C415.571 54.7909 418.552 52.5101 420.936 49.6072C423.321 46.7044 425.083 43.361 426.224 39.5769C427.364 35.7929 427.805 31.7237 427.546 27.3695H400.021V37.4776ZM455.437 23.1708L466.089 2.7214H481.174L462.124 34.9894V57.1494H448.75V35.0672L429.7 2.7214H444.785L455.437 23.1708ZM143.339 67.2009V82.8921L124.104 65.807V95.0787H130.555V79.3875L149.831 96.4725V67.2009H143.339ZM111.347 67.2009V95.0787H118.197V67.2009H111.347ZM160.581 73.2145H152.935V67.2009H174.998V73.2145H167.312V95.0787H160.581V73.2145ZM184.498 95.0787H196.566V89.5429H184.498V83.1311H195.769V77.7148H184.498V72.7366H196.566V67.2009H184.498H182.507H178.047V95.0787H182.507H184.498ZM202.043 95.0787V67.2009H208.774V89.304H219.965V95.0787H202.043ZM223.084 67.2009V95.0787H241.005V89.304H229.814V67.2009H223.084ZM262.643 95.0787H250.576H248.585H244.124V67.2009H248.585H250.576H262.643V72.7366H250.576V77.7148H261.846V83.1311H250.576V89.5429H262.643V95.0787ZM273.855 81.1398C273.855 79.414 274.24 77.9405 275.01 76.7192C275.78 75.4979 276.789 74.5686 278.037 73.9314C279.311 73.2942 280.705 72.9756 282.219 72.9756C283.546 72.9756 284.714 73.1482 285.723 73.4933C286.732 73.8119 287.635 74.2633 288.431 74.8474C289.228 75.4049 289.932 76.0023 290.542 76.6395V69.3913C289.427 68.5151 288.206 67.8248 286.878 67.3204C285.551 66.8159 283.865 66.5637 281.82 66.5637C279.59 66.5637 277.533 66.9089 275.648 67.5992C273.762 68.2895 272.143 69.2851 270.789 70.5861C269.435 71.887 268.386 73.4269 267.643 75.2058C266.899 76.9847 266.528 78.9627 266.528 81.1398C266.528 83.3169 266.899 85.2949 267.643 87.0738C268.386 88.8526 269.435 90.3925 270.789 91.6935C272.143 92.9945 273.762 93.9901 275.648 94.6804C277.533 95.3707 279.59 95.7159 281.82 95.7159C283.865 95.7159 285.551 95.4636 286.878 94.9592C288.206 94.4547 289.427 93.7644 290.542 92.8883V85.64C289.932 86.2773 289.228 86.8746 288.431 87.4322C287.635 87.9897 286.732 88.4411 285.723 88.7863C284.714 89.1314 283.546 89.304 282.219 89.304C280.705 89.304 279.311 88.9854 278.037 88.3482C276.789 87.711 275.78 86.7817 275.01 85.5604C274.24 84.3125 273.855 82.839 273.855 81.1398ZM299.698 73.2145H292.052V67.2009H314.115V73.2145H306.428V95.0787H299.698V73.2145ZM334.838 81.1398C334.838 79.414 335.223 77.9405 335.993 76.7192C336.763 75.4979 337.772 74.5686 339.02 73.9314C340.294 73.2942 341.688 72.9756 343.201 72.9756C344.529 72.9756 345.697 73.1482 346.706 73.4933C347.715 73.8119 348.618 74.2633 349.414 74.8474C350.211 75.4049 350.914 76.0023 351.525 76.6395V69.3913C350.41 68.5151 349.188 67.8248 347.861 67.3204C346.533 66.8159 344.847 66.5637 342.803 66.5637C340.573 66.5637 338.515 66.9089 336.63 67.5992C334.745 68.2895 333.125 69.2851 331.771 70.5861C330.417 71.887 329.369 73.4269 328.625 75.2058C327.882 76.9847 327.51 78.9627 327.51 81.1398C327.51 83.3169 327.882 85.2949 328.625 87.0738C329.369 88.8526 330.417 90.3925 331.771 91.6935C333.125 92.9945 334.745 93.9901 336.63 94.6804C338.515 95.3707 340.573 95.7159 342.803 95.7159C344.847 95.7159 346.533 95.4636 347.861 94.9592C349.188 94.4547 350.41 93.7644 351.525 92.8883V85.64C350.914 86.2773 350.211 86.8746 349.414 87.4322C348.618 87.9897 347.715 88.4411 346.706 88.7863C345.697 89.1314 344.529 89.304 343.201 89.304C341.688 89.304 340.294 88.9854 339.02 88.3482C337.772 87.711 336.763 86.7817 335.993 85.5604C335.223 84.3125 334.838 82.839 334.838 81.1398ZM375.546 95.0787H363.479H361.488H357.028V67.2009H361.488H363.479H375.546V72.7366H363.479V77.7148H374.75V83.1311H363.479V89.5429H375.546V95.0787ZM400.26 67.2009V82.8921L381.024 65.807V95.0787H387.476V79.3875L406.751 96.4725V67.2009H400.26ZM417.502 73.2145H409.855V67.2009H431.918V73.2145H424.232V95.0787H417.502V73.2145ZM441.419 95.0787H453.486V89.5429H441.419V83.1311H452.689V77.7148H441.419V72.7366H453.486V67.2009H441.419H439.427H434.967V95.0787H439.427H441.419ZM467.724 85.4011L473.739 95.0787H481.624L474.359 84.5628C474.612 84.4657 474.857 84.3601 475.093 84.2462C476.686 83.4762 477.894 82.4142 478.717 81.0601C479.54 79.6795 479.951 78.0998 479.951 76.3209C479.951 74.5155 479.54 72.9358 478.717 71.5817C477.894 70.2011 476.686 69.1258 475.093 68.3558C473.5 67.5859 471.508 67.2009 469.119 67.2009H465.694H463.185H458.963V95.0787H465.694V85.4011H467.724ZM465.694 72.8959V80.184H468.641C469.544 80.184 470.314 80.0512 470.951 79.7857C471.615 79.4937 472.119 79.0821 472.464 78.5511C472.809 77.9936 472.982 77.3298 472.982 76.5599C472.982 75.7899 472.809 75.1394 472.464 74.6084C472.119 74.0509 471.615 73.6261 470.951 73.334C470.314 73.042 469.544 72.8959 468.641 72.8959H465.694Z" fill="#000080"/>
</svg>
